<?xml version="1.0" encoding="iso-8859-1"?>
<!-- Generator: Adobe Illustrator 19.0.0, SVG Export Plug-In . SVG Version: 6.00 Build 0)  -->
<svg version="1.1" id="Capa_1" xmlns="http://www.w3.org/2000/svg" xmlns:xlink="http://www.w3.org/1999/xlink" x="0px" y="0px"
	 viewBox="0 0 512 512" style="enable-background:new 0 0 512 512;" xml:space="preserve">
		<path d="M162.002,237h-61c-11.046,0-20,8.954-20,20c0,11.046,8.954,20,20,20h61c11.046,0,20-8.954,20-20S173.048,237,162.002,237
			z"/>
		<path d="M162.002,315h-61c-11.046,0-20,8.954-20,20c0,11.046,8.954,20,20,20h61c11.046,0,20-8.954,20-20
			C182.002,323.954,173.048,315,162.002,315z"/>
		<path d="M162.002,391.999h-61c-11.046,0-20,8.954-20,20c0,11.046,8.954,20,20,20h61c11.046,0,20-8.954,20-20
			C182.002,400.953,173.048,391.999,162.002,391.999z"/>
		<path d="M292.001,391.999h-61c-11.046,0-20,8.954-20,20c0,11.046,8.954,20,20,20h61c11.046,0,20-8.954,20-20
			C312.001,400.953,303.047,391.999,292.001,391.999z"/>
		<path d="M292.001,80.001H101.002c-11.046,0-20,8.954-20,20v79c0,11.046,8.954,20,20,20h190.999c11.046,0,20-8.954,20-20v-79
			C312.001,88.955,303.047,80.001,292.001,80.001z M272.001,159.001H121.002v-39h150.999V159.001z"/>
		<path d="M492,351.999c11.046,0,20-8.954,20-20v-50c0-11.046-8.954-20-20-20h-99.999V20.001c0-11.046-8.954-20-20-20H20.003
			c-11.045,0-20,8.954-20,20L0,431.995c0,44.111,35.887,80,80,80.001l351.998,0.003c0.153,0,0.306-0.002,0.458-0.005
			c21.198-0.117,41.108-8.427,56.111-23.428C503.678,473.456,512,453.365,512,431.995c0-11.046-8.954-20-20-20
			c-11.046,0-20,8.954-20,20c0,10.686-4.161,20.73-11.717,28.286c-7.556,7.554-17.599,11.714-28.283,11.714
			c-0.001,0-0.003,0-0.003,0c-22.054-0.002-39.997-17.946-39.997-40V302h80v30C472,343.046,480.955,351.999,492,351.999z
			 M80,471.996c-22.056-0.001-40-17.945-40-40.001l0.003-391.994h311.998v391.994c0,14.562,3.912,28.229,10.739,40.003L80,471.996z
			"/>
		<path d="M292.001,237h-61c-11.046,0-20,8.954-20,20c0,11.046,8.954,20,20,20h61c11.046,0,20-8.954,20-20S303.047,237,292.001,237
			z"/>
		<path d="M292.001,315h-61c-11.046,0-20,8.954-20,20c0,11.046,8.954,20,20,20h61c11.046,0,20-8.954,20-20
			C312.001,323.954,303.047,315,292.001,315z"/>
</svg>
