<?xml version="1.0" encoding="utf-8"?>
<!-- Generator: Adobe Illustrator 22.0.0, SVG Export Plug-In . SVG Version: 6.00 Build 0)  -->
<svg version="1.1" id="Capa_1" xmlns="http://www.w3.org/2000/svg" xmlns:xlink="http://www.w3.org/1999/xlink" x="0px" y="0px"
	 viewBox="0 0 410.4 410.1" style="enable-background:new 0 0 410.4 410.1;" xml:space="preserve">
<style type="text/css">
	.st0{clip-path:url(#SVGID_2_);}
</style>
<g>
	<g>
		<defs>
			<rect id="SVGID_1_" x="-0.1" y="0" width="409.9" height="410.9"/>
		</defs>
		<clipPath id="SVGID_2_">
			<use xlink:href="#SVGID_1_"  style="overflow:visible;"/>
		</clipPath>
		<path fill="#878787" class="st0" d="M168.3,0.4c-92.6,0-168,75.4-168,168c0,29.2,7.6,57.9,22,83.1c4.4,7.7,14.1,10.3,21.8,6
			c7.7-4.4,10.3-14.1,6-21.8c-11.6-20.4-17.8-43.6-17.8-67.3c0-75,61-136,136-136c75,0,136,61,136,136s-61,136-136,136
			c-23.3,0-46.4-6-66.6-17.4c-7.7-4.3-17.5-1.6-21.8,6.1c-4.3,7.7-1.6,17.5,6.1,21.8c25,14.1,53.4,21.5,82.2,21.5
			c40.4,0,77.5-14.3,106.5-38.2l107.8,107.1c3.1,3.1,7.2,4.6,11.3,4.6c4.1,0,8.2-1.6,11.4-4.7c6.2-6.3,6.2-16.4-0.1-22.6l-107.7-107
			c24.2-29.1,38.8-66.5,38.8-107.3C336.3,75.7,260.9,0.4,168.3,0.4L168.3,0.4z M168.3,0.4"/>
	</g>
</g>
</svg>
