<?xml version="1.0" encoding="iso-8859-1"?>
<!-- Generator: Adobe Illustrator 16.0.0, SVG Export Plug-In . SVG Version: 6.00 Build 0)  -->
<!DOCTYPE svg PUBLIC "-//W3C//DTD SVG 1.1//EN" "http://www.w3.org/Graphics/SVG/1.1/DTD/svg11.dtd">
<svg version="1.1" id="Capa_1" xmlns="http://www.w3.org/2000/svg" xmlns:xlink="http://www.w3.org/1999/xlink" x="0px" y="0px"
	 width="612px" height="612px" viewBox="0 0 612 612" style="enable-background:new 0 0 612 612;" xml:space="preserve">
			<path d="M306,0C137.266,0,0,137.266,0,306s137.266,306,306,306s306-137.266,306-306S474.734,0,306,0z M88.444,189.7
				c10.897,32.693,29.495,55.416,46.729,76.085c16.623,19.939,30.62,37.135,37.628,62.167
				c-62.207-7.739-101.04-19.683-113.279-28.113C60.509,260.14,70.755,222.669,88.444,189.7z M126.822,475.148
				c-28.33-29.987-49.138-67.023-59.66-108.205c31.567,10.582,70.597,17.195,108.699,21.302
				c-5.054,33.363-21.065,53.026-40.668,76.599C132.409,468.18,129.606,471.733,126.822,475.148z M276.387,550.819
				c-38.043-4.56-73.401-17.826-104.099-37.727c2.783-3.435,5.488-6.851,8.41-10.325c22.625-27.145,47.697-57.567,54.37-109.824
				c15.023,0.79,29.001,1.283,41.32,1.54V550.819z M276.387,335.258c-14.728-0.355-28.685-0.968-42.031-1.757
				c-7.482-49.612-31.666-79.225-53.659-105.62c-23.75-28.468-42.504-50.974-42.504-99.5c0-1.066,0.138-1.955,0.158-2.941
				c37.233-34.588,85.009-57.884,138.036-64.26V335.258z M523.536,189.7c17.689,32.969,27.935,70.419,28.922,110.16
				c-12.239,8.43-51.072,20.374-113.279,28.112c7.028-25.052,21.006-42.248,37.629-62.167
				C494.062,245.116,512.639,222.413,523.536,189.7z M335.613,61.18c53.007,6.376,100.802,29.672,138.035,64.26
				c0.02,0.987,0.158,1.875,0.158,2.941c0,48.525-18.755,71.031-42.484,99.519c-21.993,26.395-46.177,56.008-53.659,105.62
				c-13.346,0.789-27.303,1.401-42.03,1.757V61.18H335.613z M335.613,550.819V394.483c12.318-0.276,26.296-0.75,41.319-1.54
				c6.692,52.257,31.765,82.68,54.369,109.824c2.922,3.494,5.646,6.91,8.41,10.325C409.014,532.993,373.655,546.26,335.613,550.819z
				 M485.178,475.148c-2.804-3.435-5.587-6.988-8.37-10.285c-19.604-23.552-35.635-43.234-40.669-76.599
				c38.122-4.106,77.132-10.72,108.699-21.302C534.315,408.145,513.527,445.181,485.178,475.148z"/>
</svg>
