<?xml version="1.0" encoding="iso-8859-1"?>
<!-- Generator: Adobe Illustrator 16.0.0, SVG Export Plug-In . SVG Version: 6.00 Build 0)  -->
<!DOCTYPE svg PUBLIC "-//W3C//DTD SVG 1.1//EN" "http://www.w3.org/Graphics/SVG/1.1/DTD/svg11.dtd">
<svg version="1.1" id="Capa_1" xmlns="http://www.w3.org/2000/svg" xmlns:xlink="http://www.w3.org/1999/xlink" x="0px" y="0px"
	 width="612.005px" height="612.006px" viewBox="0 0 612.005 612.006" style="enable-background:new 0 0 612.005 612.006;"
	 xml:space="preserve">
			<path d="M606.762,126.744l-80.306-114.75c-5.222-7.497-13.693-11.953-22.701-11.991H108.25
				c-9.008,0.038-17.461,4.494-22.702,11.991L5.243,126.744c-7.038,10.041-6.98,23.562,0.115,33.564L132.94,339.873
				c-11.533,24.614-18.188,51.943-18.188,80.88c0,105.455,85.795,191.25,191.25,191.25s191.25-85.795,191.25-191.25
				c0-28.937-6.655-56.266-18.188-80.88l127.582-179.564C613.743,150.306,613.8,136.785,606.762,126.744z M448.598,57.378
				l-40.755,57.375H204.181l-40.755-57.375H448.598z M367.069,172.128l-41.482,58.37c-6.445-0.65-12.967-0.995-19.584-0.995
				s-13.139,0.344-19.584,0.995l-41.463-58.37H367.069z M166.849,289.976L62.637,143.307l45.881-65.58l119.704,168.472
				C204.908,256.622,184.119,271.597,166.849,289.976z M306.002,554.628c-73.822,0-133.875-60.071-133.875-133.875
				s60.053-133.875,133.875-133.875s133.875,60.071,133.875,133.875S379.825,554.628,306.002,554.628z M445.175,289.976
				c-17.271-18.379-38.059-33.354-61.392-43.777L503.487,77.727l45.881,65.58L445.175,289.976z"/>
</svg>
