<?xml version="1.0" encoding="iso-8859-1"?>
<!-- Generator: Adobe Illustrator 16.0.0, SVG Export Plug-In . SVG Version: 6.00 Build 0)  -->
<!DOCTYPE svg PUBLIC "-//W3C//DTD SVG 1.1//EN" "http://www.w3.org/Graphics/SVG/1.1/DTD/svg11.dtd">
<svg version="1.1" id="Capa_1" xmlns="http://www.w3.org/2000/svg" xmlns:xlink="http://www.w3.org/1999/xlink" x="0px" y="0px"
	 width="612.022px" height="612.022px" viewBox="0 0 612.022 612.022" style="enable-background:new 0 0 612.022 612.022;"
	 xml:space="preserve">
			<path d="M611.631,224.806C592.45,109.769,502.275,19.594,387.257,0.412c-7.325-1.243-14.86,0.44-20.98,4.667
				c-67.339,46.282-141.525,80.287-220.55,101.075c-10.787,2.831-18.934,11.647-20.942,22.606
				C98.393,273.842,57.121,416.744,2.079,553.507c-4.303,10.652-1.798,22.854,6.331,30.982l19.125,19.125
				c5.508,5.488,12.813,8.396,20.292,8.396c3.615,0,7.249-0.669,10.71-2.065c136.763-55.042,279.666-96.313,424.748-122.706
				c10.959-2.008,19.775-10.137,22.605-20.923c20.809-79.044,54.812-153.249,101.095-220.549
				C611.172,239.646,612.856,232.13,611.631,224.806z M455.266,434.11c-109.912,20.903-218.466,50.279-324.112,87.344
				l185.819-185.818c11.226,5.354,23.6,8.605,36.854,8.625l0,0c47.449,0,86.062-38.613,86.062-86.062
				c0-47.392-38.594-86.005-86.062-86.062c-47.431,0-86.025,38.613-86.063,86.082c0.019,13.234,3.271,25.627,8.625,36.835
				L90.59,480.851c37.083-105.628,66.44-214.162,87.344-324.073c75.008-21.63,145.791-54.43,210.815-97.652
				c81.97,18.035,146.135,82.18,164.169,164.169C509.676,288.3,476.916,359.101,455.266,434.11z M325.139,258.217
				c0.02-15.816,12.891-28.707,28.649-28.707c15.835,0.019,28.726,12.89,28.726,28.688c0,15.816-12.871,28.688-28.668,28.688
				C338.03,286.885,325.159,273.995,325.139,258.217z"/>
</svg>
